HIERARCHY
ROOT Hips
{
	OFFSET -0.001795 -0.223333 0.028219
	CHANNELS 6 Xposition Yposition Zposition Zrotation Yrotation Xrotation 
	JOINT LeftUpLeg
	{
		OFFSET 0.069520 -0.091406 -0.006815
		CHANNELS 3 Zrotation Yrotation Xrotation
		JOINT LeftLeg
		{
			OFFSET 0.034277 -0.375199 -0.004496
			CHANNELS 3 Zrotation Yrotation Xrotation
			JOINT LeftFoot
			{
				OFFSET -0.013596 -0.397961 -0.043693
				CHANNELS 3 Zrotation Yrotation Xrotation
				JOINT LeftToe
				{
					OFFSET 0.026358 -0.055791 0.119288
					CHANNELS 3 Zrotation Yrotation Xrotation
					End Site
					{
						OFFSET 0.000000 0.000000 0.000000
					}
				}
			}
		}
	}
	JOINT RightUpLeg
	{
		OFFSET -0.067670 -0.090522 -0.004320
		CHANNELS 3 Zrotation Yrotation Xrotation
		JOINT RightLeg
		{
			OFFSET -0.038290 -0.382569 -0.008850
			CHANNELS 3 Zrotation Yrotation Xrotation
			JOINT RightFoot
			{
				OFFSET 0.015774 -0.398415 -0.042312
				CHANNELS 3 Zrotation Yrotation Xrotation
				JOINT RightToe
				{
					OFFSET -0.025372 -0.048144 0.123348
					CHANNELS 3 Zrotation Yrotation Xrotation
					End Site
					{
						OFFSET 0.000000 0.000000 0.000000
					}
				}
			}
		}
	}
	JOINT Spine
	{
		OFFSET -0.002533 0.108963 -0.026696
		CHANNELS 3 Zrotation Yrotation Xrotation
		JOINT Spine1
		{
			OFFSET 0.005487 0.135180 0.001092
			CHANNELS 3 Zrotation Yrotation Xrotation
			JOINT Spine2
			{
				OFFSET 0.001457 0.052922 0.025425
				CHANNELS 3 Zrotation Yrotation Xrotation
				JOINT Neck
				{
					OFFSET -0.002778 0.213870 -0.042857
					CHANNELS 3 Zrotation Yrotation Xrotation
					JOINT Head
					{
						OFFSET 0.005152 0.064970 0.051349
						CHANNELS 3 Zrotation Yrotation Xrotation
						End Site
						{
							OFFSET 0.000000 0.000000 0.000000
						}
					}
				}
				JOINT LeftShoulder
				{
					OFFSET 0.078845 0.121749 -0.034090
					CHANNELS 3 Zrotation Yrotation Xrotation
					JOINT LeftArm
					{
						OFFSET 0.090977 0.030469 -0.008868
						CHANNELS 3 Zrotation Yrotation Xrotation
						JOINT LeftForeArm
						{
							OFFSET 0.259612 -0.012772 -0.027456
							CHANNELS 3 Zrotation Yrotation Xrotation
							JOINT LeftHand
							{
								OFFSET 0.249234 0.008986 -0.001171
								CHANNELS 3 Zrotation Yrotation Xrotation
								End Site
								{
									OFFSET 0.000000 0.000000 0.000000
								}
							}
						}
					}
				}
				JOINT RightShoulder
				{
					OFFSET -0.081759 0.118833 -0.038615
					CHANNELS 3 Zrotation Yrotation Xrotation
					JOINT RightArm
					{
						OFFSET -0.096012 0.032551 -0.009143
						CHANNELS 3 Zrotation Yrotation Xrotation
						JOINT RightForeArm
						{
							OFFSET -0.253742 -0.013329 -0.021401
							CHANNELS 3 Zrotation Yrotation Xrotation
							JOINT RightHand
							{
								OFFSET -0.255298 0.007772 -0.005559
								CHANNELS 3 Zrotation Yrotation Xrotation
								End Site
								{
									OFFSET 0.000000 0.000000 0.000000
								}
							}
						}
					}
				}
			}
		}
	}
}
MOTION
Frames: 10
Frame Time: 0.050000
0.008809 0.938433 -0.379162 -1.048722 1.473207 -0.366964 1.165457 -0.511346 -6.125186 -5.368986 0.585530 1.355046 3.681367 9.236810 5.412558 0.000000 0.000000 0.000000 0.753317 1.345687 -12.826054 -1.210366 2.062727 40.657007 -3.376958 -7.539146 -3.212095 0.000000 0.000000 0.000000 1.515900 -0.337037 5.961251 0.605406 -0.220005 -1.842709 -6.162649 3.415524 13.066963 11.126987 -2.811710 -29.579932 0.000000 0.000000 0.000000 -17.907737 -8.361241 1.616360 -52.389793 -3.691750 -5.177071 -108.497695 -74.691236 96.412330 0.000000 0.000000 0.000000 18.211456 -4.046168 -2.439416 68.324093 -2.380061 -8.746044 126.498348 63.533578 111.214228 0.000000 0.000000 0.000000 
-0.002091 0.935505 -0.408274 -0.472942 1.097701 0.116756 0.554595 -0.689839 -7.876949 -5.344774 0.574147 0.269400 3.926329 10.128197 7.382723 0.000000 0.000000 0.000000 0.260356 0.864716 -8.508388 -1.979024 2.497444 40.265904 -3.396853 -7.585143 -3.206414 0.000000 0.000000 0.000000 1.222221 -0.239063 4.421883 0.528206 -0.176508 -2.117668 -6.608616 4.043256 12.975994 11.611295 -3.030077 -29.331254 0.000000 0.000000 0.000000 -17.213855 -8.019500 1.371926 -53.194161 -2.879676 -5.615145 -107.881957 -72.754284 93.453778 0.000000 0.000000 0.000000 18.515331 -5.516338 -3.164874 69.445419 -2.916976 -9.128811 123.157013 61.826500 105.397316 0.000000 0.000000 0.000000 
-0.014326 0.931369 -0.439961 0.432872 0.409635 0.695670 0.362891 -0.907812 -10.205168 -5.379925 0.579256 -0.330857 4.468504 11.469776 9.670765 0.000000 0.000000 0.000000 -0.898277 0.457442 -4.726331 -2.943517 2.883382 37.352455 -3.352403 -7.100438 -4.138258 0.000000 0.000000 0.000000 0.357189 -0.172282 3.851966 0.761153 -0.256064 -2.987454 -6.788628 4.497497 12.862054 10.877155 -2.658559 -29.254289 0.000000 0.000000 0.000000 -17.002818 -7.803334 1.262252 -53.816181 -3.011672 -5.630403 -110.885067 -70.808310 94.589850 0.000000 0.000000 0.000000 17.700145 -5.498064 -3.086827 70.853128 -3.128400 -9.332151 122.765185 60.897799 103.871224 0.000000 0.000000 0.000000 
-0.027534 0.925938 -0.474424 0.639198 0.763262 1.553176 0.789385 -1.192352 -13.840035 -5.616416 0.591189 -0.741845 4.660572 12.200382 11.825801 0.000000 0.000000 0.000000 -0.402114 0.143555 -1.372043 -3.446055 2.808745 34.140452 -2.614690 -4.856850 -4.656531 0.000000 0.000000 0.000000 0.936566 -0.133826 2.485132 0.748825 -0.291043 -1.791889 -7.570962 4.369077 10.915112 10.539891 -2.453615 -28.793234 0.000000 0.000000 0.000000 -15.946187 -8.265121 1.445940 -55.592965 -3.361606 -5.516869 -111.818495 -69.049364 93.285980 0.000000 0.000000 0.000000 17.209330 -5.627130 -3.114815 71.992879 -3.367792 -9.312817 123.713337 60.566823 104.451436 0.000000 0.000000 0.000000 
-0.042034 0.920413 -0.511468 1.616978 1.162790 1.749240 0.668060 -1.432672 -16.318217 -6.397425 0.656222 -1.087974 4.762359 12.651116 13.341234 0.000000 0.000000 0.000000 0.042371 -0.164218 1.612142 -4.007439 2.584416 28.795381 -1.975896 -2.365795 -6.091144 0.000000 0.000000 0.000000 0.876431 -0.152423 2.912777 0.590916 -0.200341 -2.231267 -7.840714 3.893974 10.736942 9.836231 -1.962863 -29.834065 0.000000 0.000000 0.000000 -15.649976 -8.755651 1.763429 -56.730561 -5.662919 -4.571415 -112.494832 -69.844742 95.045276 0.000000 0.000000 0.000000 16.195160 -4.831778 -2.671576 73.533433 -1.788254 -8.411250 123.875207 61.708160 105.845571 0.000000 0.000000 0.000000 
-0.057804 0.915257 -0.550794 1.273651 0.798809 1.598773 1.442734 -1.472481 -18.082349 -5.625269 0.574172 -1.931430 5.392600 13.883003 15.600097 0.000000 0.000000 0.000000 2.218226 -0.494315 3.619085 -4.867805 2.366078 22.142864 -2.268338 -1.202363 -9.800819 0.000000 0.000000 0.000000 2.348459 -0.238230 3.374556 0.261333 -0.080198 -1.383209 -8.408750 4.745523 9.870001 9.881692 -1.833311 -29.969786 0.000000 0.000000 0.000000 -14.798667 -9.232971 1.851151 -57.914842 -7.577163 -3.692006 -115.818326 -70.979066 99.332511 0.000000 0.000000 0.000000 17.260974 -5.168539 -2.773055 72.835767 -0.504668 -7.408341 122.886428 62.316564 105.708411 0.000000 0.000000 0.000000 
-0.073671 0.912304 -0.590302 0.653227 0.820078 1.569411 2.649882 -1.370360 -19.054492 -5.310227 0.513686 -4.396830 5.190718 13.517281 15.034171 0.000000 0.000000 0.000000 3.885115 -0.705444 4.447820 -4.262462 1.711099 16.232850 -2.836707 -1.576492 -12.462448 0.000000 0.000000 0.000000 3.631018 -0.382861 4.585191 -0.011815 0.053113 -1.606549 -8.014491 5.415029 10.175532 9.056680 -1.154729 -31.426932 0.000000 0.000000 0.000000 -15.761103 -9.417553 1.728646 -57.063132 -9.139682 -2.845090 -117.741466 -71.016884 101.238876 0.000000 0.000000 0.000000 16.434159 -4.439979 -2.207401 72.230115 1.425221 -6.054125 120.837958 64.883689 106.510494 0.000000 0.000000 0.000000 
-0.088335 0.912466 -0.627678 -0.304921 0.670029 2.742209 4.512509 -1.169299 -20.426421 -5.059191 0.463405 -7.393714 5.605650 14.081426 14.702535 0.000000 0.000000 0.000000 6.024638 -0.524820 2.232905 -4.374542 1.544933 13.770715 -3.340999 -1.964867 -14.771581 0.000000 0.000000 0.000000 4.886070 -0.437961 4.164545 0.282868 -0.117319 -0.549422 -8.415193 5.517608 8.418793 9.159109 -1.105077 -31.573079 0.000000 0.000000 0.000000 -16.522099 -8.061904 0.878447 -56.887539 -8.541249 -2.900113 -120.582350 -69.289338 102.263069 0.000000 0.000000 0.000000 17.112128 -3.263661 -1.602586 69.453415 3.089096 -4.799670 114.927698 67.307295 101.834399 0.000000 0.000000 0.000000 
-0.100975 0.914429 -0.661024 -0.960442 1.888696 2.894635 5.848509 -1.050138 -21.269685 -5.958930 0.464052 -8.149057 6.227794 14.978688 13.298710 0.000000 0.000000 0.000000 7.489766 -0.299250 0.479162 -3.743380 1.334725 13.190746 -3.407070 -2.542615 -15.029740 0.000000 0.000000 0.000000 5.710616 -0.491598 4.157467 1.049696 -0.457408 -0.981386 -8.821992 6.546274 9.144711 9.931092 -1.071572 -32.845129 0.000000 0.000000 0.000000 -16.391262 -9.605655 1.251841 -56.511571 -8.672904 -2.810210 -121.745960 -69.574834 102.932015 0.000000 0.000000 0.000000 17.016102 -4.601589 -1.956342 68.147921 4.416216 -3.883183 109.180828 69.329462 98.677215 0.000000 0.000000 0.000000 
-0.110866 0.918401 -0.689933 -1.425631 1.743081 2.811848 6.627705 -0.927737 -21.594734 -5.978657 0.532207 -4.874591 8.209696 17.700558 9.623539 0.000000 0.000000 0.000000 8.510714 -0.170245 -0.449802 -3.888318 1.307926 12.311665 -2.795412 -1.727946 -12.456315 0.000000 0.000000 0.000000 6.472741 -0.582718 4.650478 0.695816 -0.261721 -1.767744 -7.725766 5.757602 9.568431 10.330686 -1.478804 -32.294822 0.000000 0.000000 0.000000 -16.008541 -8.138984 0.852166 -57.418833 -8.053005 -3.291471 -121.809506 -69.116321 103.269870 0.000000 0.000000 0.000000 15.356076 -3.344919 -1.456476 67.040699 5.146774 -3.468417 99.338907 70.566199 88.694769 0.000000 0.000000 0.000000 
